<?xml version="1.0" standalone="no"?>
<!DOCTYPE svg PUBLIC "-//W3C//DTD SVG 20010904//EN"
 "http://www.w3.org/TR/2001/REC-SVG-20010904/DTD/svg10.dtd">
<svg version="1.0" xmlns="http://www.w3.org/2000/svg"
 width="1200.000000pt" height="1200.000000pt" viewBox="0 0 1200.000000 1200.000000"
 preserveAspectRatio="xMidYMid meet">
<metadata>
Created by potrace 1.11, written by Peter Selinger 2001-2013
</metadata>
<g transform="translate(0.000000,1200.000000) scale(0.100000,-0.100000)"
fill="#000000" stroke="none">
<path d="M5718 11995 c-1 -1 -55 -6 -118 -9 -63 -4 -133 -9 -155 -11 -106 -11
-138 -15 -187 -21 -29 -3 -64 -8 -78 -10 -14 -2 -41 -7 -60 -9 -19 -3 -48 -7
-65 -10 -16 -3 -48 -7 -70 -11 -22 -3 -94 -17 -160 -31 -66 -13 -131 -27 -145
-29 -99 -20 -395 -103 -545 -152 -242 -80 -531 -195 -685 -272 -262 -131 -287
-143 -400 -208 -236 -134 -574 -360 -725 -484 -11 -9 -62 -50 -114 -92 -236
-190 -482 -428 -701 -675 -36 -41 -70 -79 -75 -85 -6 -6 -28 -33 -50 -61 -22
-27 -46 -57 -54 -65 -8 -8 -46 -57 -85 -110 -39 -52 -73 -97 -77 -100 -9 -8
-162 -231 -189 -275 -13 -22 -28 -41 -32 -43 -4 -2 -8 -8 -8 -14 0 -6 -11 -26
-25 -44 -14 -18 -25 -35 -25 -38 0 -3 -25 -45 -55 -95 -30 -50 -55 -93 -55
-96 0 -3 -11 -23 -25 -45 -42 -66 -189 -366 -258 -525 -75 -174 -161 -405
-206 -555 -18 -58 -36 -116 -41 -130 -23 -64 -108 -413 -126 -515 -2 -16 -7
-37 -9 -45 -2 -8 -7 -30 -10 -47 -3 -18 -7 -45 -10 -60 -11 -68 -35 -232 -40
-275 -3 -27 -7 -67 -10 -90 -23 -191 -30 -350 -30 -658 1 -280 7 -460 20 -556
2 -17 7 -57 10 -90 3 -32 11 -93 17 -134 6 -41 12 -89 14 -107 1 -17 8 -59 14
-92 6 -33 13 -73 16 -88 3 -16 16 -82 30 -148 14 -66 27 -131 30 -145 3 -14
10 -43 16 -65 5 -22 12 -48 13 -58 10 -47 73 -260 120 -403 137 -414 292 -753
539 -1179 93 -160 403 -609 446 -645 3 -3 21 -25 40 -50 42 -54 54 -68 156
-185 155 -178 408 -431 568 -568 11 -10 31 -26 42 -36 12 -10 57 -47 100 -82
44 -35 81 -67 84 -70 3 -3 50 -39 105 -80 55 -41 102 -76 105 -79 26 -29 419
-279 590 -375 82 -46 415 -215 424 -215 2 0 37 -15 78 -34 264 -123 803 -302
1049 -350 13 -2 65 -13 114 -25 50 -11 142 -29 205 -40 151 -26 165 -28 230
-36 30 -4 66 -8 80 -10 61 -8 177 -20 315 -31 125 -11 707 -11 835 -1 200 16
263 23 439 48 41 6 86 12 100 14 68 9 370 70 456 92 33 8 70 17 82 19 37 7
384 111 463 139 93 33 175 64 217 81 17 8 34 14 37 14 6 0 187 77 281 120 523
239 1045 578 1469 954 38 34 78 69 90 79 35 31 247 240 316 313 149 157 281
314 429 509 33 44 65 85 71 92 5 7 10 16 10 22 0 5 4 11 9 13 13 5 210 305
286 436 274 473 468 930 610 1442 15 52 28 102 30 110 2 8 12 53 24 100 28
121 67 318 86 435 20 128 28 189 40 310 4 33 8 76 10 95 27 234 27 865 0 1100
-2 19 -6 62 -10 94 -3 33 -8 73 -10 90 -20 149 -27 194 -31 216 -8 48 -44 245
-48 265 -3 11 -11 52 -20 90 -83 378 -233 828 -391 1170 -43 93 -162 332 -195
390 -12 22 -43 76 -68 120 -70 125 -227 368 -326 505 -78 107 -268 352 -300
386 -6 6 -40 44 -76 85 -122 138 -257 278 -381 394 -133 124 -163 151 -259
231 -52 43 -100 83 -107 89 -32 27 -51 41 -185 139 -78 58 -147 109 -153 113
-28 22 -373 243 -379 243 -3 0 -44 23 -93 51 -129 75 -397 207 -563 278 -80
34 -154 66 -165 72 -120 55 -620 213 -805 254 -56 13 -168 37 -185 41 -92 19
-126 25 -219 39 -21 4 -48 8 -60 11 -56 11 -292 40 -391 49 -38 3 -92 8 -120
11 -55 6 -711 14 -717 9z m692 -729 c25 -2 77 -7 115 -11 331 -32 721 -111
1045 -211 143 -44 373 -128 465 -169 17 -7 64 -28 105 -46 151 -64 584 -291
610 -319 6 -6 35 -24 75 -46 42 -23 274 -185 370 -258 388 -295 739 -649 1028
-1036 48 -63 90 -119 94 -125 31 -40 113 -165 113 -173 0 -6 3 -12 8 -14 9 -4
62 -85 62 -94 0 -4 6 -15 14 -23 8 -9 24 -34 37 -56 12 -22 37 -67 56 -100
212 -377 392 -821 499 -1235 20 -74 37 -146 40 -159 3 -12 11 -51 19 -85 14
-62 59 -324 69 -406 3 -25 8 -63 11 -85 6 -42 9 -73 22 -220 15 -184 7 -818
-12 -910 -3 -11 -7 -47 -10 -80 -9 -107 -67 -467 -81 -504 -2 -8 -7 -29 -10
-46 -2 -18 -23 -99 -45 -181 -21 -82 -41 -157 -44 -166 -12 -53 -110 -333
-160 -458 -72 -184 -218 -484 -325 -671 -70 -121 -213 -349 -242 -384 -5 -5
-41 -55 -81 -110 -39 -55 -76 -105 -82 -111 -5 -6 -21 -26 -35 -44 -14 -18
-29 -38 -35 -44 -5 -6 -32 -38 -60 -71 -618 -740 -1433 -1296 -2370 -1615
-206 -70 -599 -168 -780 -195 -22 -3 -65 -10 -95 -15 -61 -10 -107 -16 -195
-26 -33 -3 -68 -8 -78 -10 -139 -26 -921 -24 -1051 2 -12 2 -47 6 -78 9 -32 3
-70 7 -85 9 -16 3 -64 10 -108 16 -44 7 -89 14 -100 16 -11 2 -45 9 -75 15
-30 5 -66 12 -80 15 -14 2 -36 7 -50 10 -14 4 -34 8 -46 10 -11 1 -40 8 -65
14 -24 7 -51 13 -59 15 -166 35 -558 166 -795 267 -172 73 -554 268 -627 319
-14 11 -31 19 -37 19 -6 0 -11 5 -11 10 0 6 -5 10 -10 10 -23 0 -379 247 -534
370 -230 182 -583 525 -726 705 -17 22 -35 42 -39 45 -7 5 -120 148 -193 245
-106 141 -262 386 -388 610 -247 439 -457 1034 -554 1568 -3 15 -10 53 -15 85
-6 31 -13 75 -16 97 -2 22 -7 56 -10 75 -2 19 -7 58 -10 85 -3 28 -7 68 -10
90 -15 130 -19 230 -19 490 -1 254 6 452 19 550 2 17 6 55 10 85 9 88 43 311
59 391 9 41 18 88 20 104 10 57 96 387 107 406 5 10 7 19 5 19 -10 0 130 395
179 505 7 17 30 68 51 115 51 116 176 367 208 418 14 23 26 44 26 47 0 3 15
30 33 59 17 28 37 60 42 69 57 96 314 470 334 487 4 3 22 25 41 50 19 25 37
47 40 50 3 3 25 30 50 60 25 30 49 60 55 66 358 402 678 683 1095 958 225 150
554 328 785 426 55 23 114 48 131 56 145 64 632 222 656 213 2 0 15 4 31 10
15 6 38 13 50 15 12 2 65 14 117 25 105 23 344 65 430 76 30 3 69 8 85 10 66
8 135 15 230 21 55 3 101 7 103 9 5 4 629 -3 682 -9z"/>
<path d="M7344 8898 c-196 -58 -341 -203 -465 -463 -100 -208 -192 -561 -234
-890 -17 -136 -56 -458 -60 -500 -3 -27 -8 -61 -10 -75 -5 -30 -12 -92 -21
-185 -3 -38 -8 -77 -9 -85 -2 -8 -6 -51 -10 -95 -4 -44 -8 -91 -10 -105 -4
-27 -12 -102 -20 -190 -2 -30 -7 -77 -10 -105 -2 -27 -7 -83 -10 -124 -18
-246 -25 -312 -31 -322 -16 -26 -420 -189 -468 -189 -6 0 -12 25 -13 57 -13
303 -96 586 -233 789 -102 152 -256 298 -385 366 -234 123 -589 95 -846 -67
-28 -19 -60 -29 -93 -31 -149 -9 -266 -39 -391 -101 -278 -138 -517 -440 -673
-848 -31 -82 -77 -248 -88 -320 -3 -22 -8 -43 -9 -46 -17 -27 -25 -401 -12
-528 32 -298 124 -559 282 -796 161 -241 392 -383 685 -420 53 -6 253 -7 325
0 442 39 771 204 1013 505 29 36 57 71 63 78 59 72 181 310 228 445 33 94 74
245 87 317 4 25 8 47 9 50 5 25 25 166 29 210 2 14 4 28 4 32 1 4 26 16 55 26
69 27 187 81 320 148 60 30 106 50 103 45 -25 -39 -25 -1163 0 -1401 23 -229
42 -303 86 -340 56 -47 230 -100 376 -114 243 -25 348 14 532 194 111 108 176
188 281 345 143 212 263 423 408 720 228 464 325 713 347 896 11 91 9 123 -12
143 -27 27 -52 18 -89 -31 -32 -44 -240 -453 -296 -583 -43 -99 -185 -383
-243 -484 -31 -54 -56 -102 -56 -107 0 -5 -4 -9 -10 -9 -5 0 -10 -5 -10 -10 0
-9 -136 -227 -150 -240 -3 -3 -34 -43 -69 -90 -154 -203 -308 -325 -377 -300
-33 13 -59 96 -72 240 -9 97 -8 755 2 1115 13 480 9 437 59 541 273 554 490
1199 583 1732 14 82 17 102 29 197 3 28 8 64 10 80 14 108 20 224 20 390 -1
170 -3 198 -24 265 -52 169 -115 257 -201 280 -55 15 -153 10 -226 -12z m211
-323 c18 -36 20 -60 20 -235 0 -249 -11 -350 -67 -635 -59 -303 -210 -811
-348 -1170 l-30 -80 6 135 c3 74 7 151 9 170 2 19 6 84 10 143 3 60 8 123 10
140 2 18 6 70 10 117 4 47 8 101 10 120 2 19 6 69 10 110 3 41 8 89 10 105 2
17 6 50 9 75 27 234 33 278 52 395 8 50 17 101 19 115 17 109 46 234 77 330
62 194 144 263 193 165z m-2564 -2027 c196 -66 332 -358 403 -868 4 -28 18
-191 18 -210 0 -30 -4 -31 -114 -27 -199 8 -328 53 -477 169 -232 181 -324
535 -203 781 79 160 204 212 373 155z m-780 -205 c-28 -53 -58 -171 -77 -303
-7 -50 -7 -244 0 -275 21 -97 73 -206 135 -285 144 -184 347 -307 596 -362 62
-13 361 -17 482 -5 58 5 61 4 58 -15 -2 -11 -7 -47 -10 -81 -26 -253 -132
-550 -260 -726 -5 -8 -40 -44 -76 -81 -138 -140 -296 -200 -507 -194 -296 8
-473 173 -605 564 -34 100 -72 254 -82 330 -24 187 -24 457 0 655 3 22 7 56 9
75 8 70 49 236 78 319 54 154 119 264 208 354 50 49 67 59 51 30z"/>
<path d="M3111 3040 c-4 -3 -7 -120 -7 -260 l1 -255 2705 0 2705 0 2 258 c2
196 -1 257 -10 258 -42 4 -5390 3 -5396 -1z"/>
</g>
</svg>
