<?xml version="1.0" standalone="no"?>
<!DOCTYPE svg PUBLIC "-//W3C//DTD SVG 20010904//EN"
 "http://www.w3.org/TR/2001/REC-SVG-20010904/DTD/svg10.dtd">
<svg version="1.0" xmlns="http://www.w3.org/2000/svg"
 width="700.000000pt" height="700.000000pt" viewBox="0 0 700.000000 700.000000"
 preserveAspectRatio="xMidYMid meet">
<metadata>
Created by potrace 1.11, written by Peter Selinger 2001-2013
</metadata>
<g transform="translate(0.000000,700.000000) scale(0.100000,-0.100000)"
fill="#000000" stroke="none">
<path d="M3278 6995 c-1 -1 -41 -6 -87 -9 -634 -50 -1285 -303 -1806 -700 -44
-34 -82 -63 -85 -66 -3 -3 -32 -27 -65 -55 -122 -100 -306 -289 -445 -455 -8
-10 -24 -29 -35 -42 -46 -55 -200 -279 -250 -364 -77 -131 -147 -265 -190
-364 -21 -47 -46 -105 -57 -129 -31 -68 -114 -325 -142 -436 -74 -294 -109
-579 -109 -870 0 -152 12 -348 28 -450 2 -16 7 -52 11 -80 3 -27 10 -69 15
-93 5 -23 12 -59 15 -80 11 -71 73 -298 115 -422 98 -291 231 -558 411 -829
38 -57 74 -109 79 -115 5 -6 39 -49 76 -96 168 -213 366 -412 578 -580 374
-296 834 -526 1281 -639 139 -35 243 -58 299 -66 80 -13 91 -14 150 -20 33 -4
65 -8 72 -10 68 -22 635 -21 738 0 11 2 43 7 70 10 310 36 635 125 960 263
173 74 449 231 625 356 202 143 477 395 621 566 30 36 57 67 60 70 3 3 35 44
72 92 324 427 543 910 646 1425 16 81 32 171 35 198 7 56 15 114 22 160 9 59
12 532 3 617 -28 297 -63 481 -140 736 -74 248 -194 525 -315 729 -33 54 -61
103 -64 108 -22 45 -188 274 -273 376 -216 260 -454 477 -737 670 -74 51 -199
129 -206 129 -2 0 -23 12 -46 26 -58 37 -214 114 -339 167 -300 128 -657 222
-959 252 -36 4 -78 9 -95 12 -33 5 -531 13 -537 8z m532 -428 c8 -3 42 -8 75
-11 211 -20 608 -124 793 -208 321 -144 500 -249 722 -424 671 -527 1090
-1299 1168 -2149 14 -159 6 -596 -13 -665 -2 -8 -7 -37 -10 -65 -13 -121 -74
-371 -129 -533 -299 -876 -977 -1571 -1848 -1896 -53 -20 -103 -36 -111 -36
-7 0 -17 -4 -23 -9 -9 -9 -268 -75 -334 -86 -19 -3 -42 -8 -50 -10 -8 -2 -35
-7 -60 -10 -25 -3 -52 -8 -60 -10 -8 -2 -46 -6 -85 -10 -38 -3 -90 -8 -115
-11 -61 -7 -379 -7 -460 0 -430 39 -782 137 -1145 318 -449 225 -862 582
-1147 993 -167 240 -308 523 -398 795 -29 90 -82 289 -94 355 -17 91 -26 146
-31 194 -4 30 -8 62 -10 72 -17 85 -24 456 -11 571 3 29 8 80 11 113 7 63 9
84 26 180 6 33 12 69 14 80 1 11 13 61 24 110 227 953 897 1743 1806 2128 187
79 503 169 690 197 44 6 91 13 105 16 14 2 63 7 110 10 47 3 87 8 89 10 6 5
484 -3 501 -9z"/>
<path d="M4305 5195 c-101 -23 -171 -77 -241 -182 -36 -55 -99 -192 -108 -236
-3 -12 -11 -44 -20 -72 -16 -55 -42 -185 -51 -255 -3 -25 -8 -56 -10 -70 -2
-14 -7 -43 -9 -65 -3 -22 -10 -76 -15 -120 -6 -44 -13 -102 -16 -130 -8 -75
-15 -146 -20 -185 -2 -19 -7 -66 -11 -105 -3 -38 -8 -77 -9 -85 -2 -8 -6 -62
-10 -120 -4 -58 -9 -116 -10 -130 -2 -14 -4 -37 -4 -52 -1 -23 -10 -32 -48
-52 -46 -23 -216 -86 -232 -86 -5 0 -8 10 -8 23 3 102 -40 293 -88 387 -80
158 -209 281 -339 322 -120 38 -281 16 -411 -57 -22 -13 -65 -25 -95 -29 -109
-12 -174 -35 -260 -91 -170 -110 -335 -375 -376 -601 -3 -15 -7 -30 -9 -33 -7
-12 -19 -147 -18 -211 0 -69 9 -185 18 -235 9 -44 46 -168 54 -180 5 -5 16
-30 25 -54 24 -63 96 -170 147 -221 107 -106 220 -151 389 -155 146 -4 242 8
355 46 162 54 278 138 385 280 89 118 168 301 195 448 2 14 7 37 9 51 3 14 8
47 11 75 3 27 8 52 13 56 4 4 36 19 72 34 36 15 92 41 125 59 33 17 63 32 66
34 4 1 5 -25 4 -60 -5 -97 -5 -616 0 -680 7 -104 16 -172 30 -238 2 -8 4 -18
4 -22 2 -15 130 -68 182 -75 110 -16 200 -10 254 16 105 52 259 240 402 491
110 194 264 525 289 620 41 159 43 194 15 209 -16 9 -23 5 -45 -23 -24 -32
-103 -188 -206 -406 -147 -313 -334 -583 -445 -641 l-46 -24 -19 23 c-10 13
-23 44 -27 70 -9 52 -10 568 -1 812 l5 155 43 90 c214 452 338 903 357 1296
14 292 -70 425 -242 384z m92 -177 c18 -22 24 -70 24 -163 -1 -84 -3 -107 -16
-210 -21 -167 -88 -429 -168 -660 -19 -55 -42 -122 -52 -150 -9 -27 -19 -52
-22 -55 -6 -6 6 211 22 383 3 31 7 85 10 120 8 99 22 219 35 302 5 33 12 78
15 100 22 157 74 312 112 334 24 14 29 13 40 -1z m-1444 -1220 c19 -12 49 -43
67 -69 31 -45 93 -211 103 -274 3 -16 10 -57 15 -90 6 -33 12 -89 14 -125 l3
-65 -50 -1 c-211 -2 -398 143 -433 337 -28 150 29 291 128 316 45 12 110 0
153 -29z m-514 -144 c-24 -71 -37 -201 -27 -277 14 -110 99 -229 219 -307 128
-82 283 -110 488 -86 l34 4 -7 -63 c-27 -262 -160 -492 -324 -556 -80 -32
-226 -32 -295 -1 -134 61 -231 242 -274 512 -14 91 -8 309 12 435 22 139 78
273 144 348 24 26 44 47 46 47 2 0 -5 -25 -16 -56z"/>
<path d="M1810 1623 l0 -152 1580 0 1580 0 0 152 0 152 -1580 0 -1580 0 0
-152z"/>
</g>
</svg>
